<svg xmlns="http://www.w3.org/2000/svg" width="1200" height="630" viewBox="0 0 1200 630"><rect width="1200" height="630" fill="#f1f5f9"/><rect x="55" y="45" width="1090" height="540" rx="12" fill="white" stroke="#cbd5e1"/><rect x="55" y="45" width="1090" height="64" rx="12" fill="#1d4ed8"/><text x="90" y="86" font-family="Arial,sans-serif" font-size="26" fill="white">Scheduled Spreadsheet Report</text><text x="90" y="148" font-family="Arial,sans-serif" font-size="18" fill="#334155">月次ダッシュボード　最終更新：2026-08-13 09:00</text><g font-family="Arial,sans-serif"><rect x="90" y="180" width="300" height="110" rx="10" fill="#dbeafe"/><text x="115" y="220" font-size="16" fill="#1e3a8a">売上合計</text><text x="115" y="265" font-size="32" font-weight="bold" fill="#1e3a8a">¥395,000</text><rect x="450" y="180" width="300" height="110" rx="10" fill="#dcfce7"/><text x="475" y="220" font-size="16" fill="#14532d">件数合計</text><text x="475" y="265" font-size="32" font-weight="bold" fill="#14532d">10</text><rect x="810" y="180" width="300" height="110" rx="10" fill="#fef3c7"/><text x="835" y="220" font-size="16" fill="#78350f">集計行数</text><text x="835" y="265" font-size="32" font-weight="bold" fill="#78350f">4</text><rect x="90" y="330" width="1020" height="46" fill="#dbeafe"/><g font-size="16" fill="#1e3a8a"><text x="110" y="359">期間</text><text x="330" y="359">担当者</text><text x="530" y="359">カテゴリ</text><text x="750" y="359">金額合計</text><text x="970" y="359">件数</text></g><g font-size="15" fill="#334155"><text x="110" y="418">2026-08</text><text x="330" y="418">山田</text><text x="530" y="418">保守</text><text x="750" y="418">¥120,000</text><text x="970" y="418">3</text><text x="110" y="466">2026-08</text><text x="330" y="466">佐藤</text><text x="530" y="466">開発</text><text x="750" y="466">¥80,000</text><text x="970" y="466">2</text></g><text x="90" y="550" font-size="15" fill="#64748b">ダミーデータによる画面イメージ</text></g></svg>
